<?xml version="1.0" standalone="no"?><!DOCTYPE svg PUBLIC "-//W3C//DTD SVG 1.1//EN" "http://www.w3.org/Graphics/SVG/1.1/DTD/svg11.dtd"><svg t="1720751509012" class="icon" viewBox="0 0 1024 1024" version="1.1" xmlns="http://www.w3.org/2000/svg" p-id="4327" xmlns:xlink="http://www.w3.org/1999/xlink" width="64" height="64"><path d="M145.5104 197.888v380.6208c0 207.2064 164.096 375.1424 366.4896 375.1424 202.3936 0 366.4896-167.936 366.4896-375.1424v-380.416L509.7984 74.0352 145.5104 197.888zM509.696 0L947.2 147.1488v431.36C947.2 824.5248 752.3328 1024 512 1024s-435.2-199.4752-435.2-445.4912V147.1488L509.696 0z m226.2528 332.032a33.792 33.792 0 0 0-48.5376 2.9184L466.432 589.3632 323.6864 431.4112a33.792 33.792 0 0 0-48.5376-1.9456 35.7376 35.7376 0 0 0-1.8944 49.7152l168.448 186.368a33.792 33.792 0 0 0 50.944-0.512l246.1184-283.3408a35.7376 35.7376 0 0 0-2.816-49.664z" fill="#1296db" p-id="4328"></path></svg>